<?xml version="1.0" encoding="UTF-8" standalone="no"?>
<!-- Created with Inkscape (http://www.inkscape.org/) -->

<svg
   width="3840"
   height="2160"
   viewBox="0 0 3840 2160"
   version="1.1"
   id="svg1"
   xml:space="preserve"
   inkscape:export-filename="Home-bg.svg"
   inkscape:export-xdpi="96"
   inkscape:export-ydpi="96"
   xmlns:inkscape="http://www.inkscape.org/namespaces/inkscape"
   xmlns:sodipodi="http://sodipodi.sourceforge.net/DTD/sodipodi-0.dtd"
   xmlns="http://www.w3.org/2000/svg"
   xmlns:svg="http://www.w3.org/2000/svg"><sodipodi:namedview
     id="namedview1"
     pagecolor="#505050"
     bordercolor="#eeeeee"
     borderopacity="1"
     inkscape:showpageshadow="0"
     inkscape:pageopacity="0"
     inkscape:pagecheckerboard="0"
     inkscape:deskcolor="#d1d1d1"
     inkscape:document-units="px" /><defs
     id="defs1"><inkscape:path-effect
       effect="skeletal"
       id="path-effect47"
       is_visible="true"
       lpeversion="1"
       pattern="m 704.69141,2837.0117 a 363.09454,363.09454 0 0 0 -44.51953,172.2715 363.09454,363.09454 0 0 0 44.01171,171.3457 363.09454,363.09454 0 0 0 44.01172,-171.3457 363.09454,363.09454 0 0 0 -43.5039,-172.2715 z"
       copytype="single_stretched"
       prop_scale="0.05"
       scale_y_rel="false"
       spacing="0"
       normal_offset="0"
       tang_offset="0"
       prop_units="false"
       vertical_pattern="false"
       hide_knot="false"
       fuse_tolerance="0" /><inkscape:path-effect
       effect="skeletal"
       id="path-effect44"
       is_visible="true"
       lpeversion="1"
       pattern="m 704.69141,2837.0117 a 363.09454,363.09454 0 0 0 -44.51953,172.2715 363.09454,363.09454 0 0 0 44.01171,171.3457 363.09454,363.09454 0 0 0 44.01172,-171.3457 363.09454,363.09454 0 0 0 -43.5039,-172.2715 z"
       copytype="single_stretched"
       prop_scale="0.07"
       scale_y_rel="false"
       spacing="0"
       normal_offset="0"
       tang_offset="0"
       prop_units="false"
       vertical_pattern="false"
       hide_knot="false"
       fuse_tolerance="0" /><inkscape:path-effect
       effect="skeletal"
       id="path-effect43"
       is_visible="true"
       lpeversion="1"
       pattern="m 704.69141,2837.0117 a 363.09454,363.09454 0 0 0 -44.51953,172.2715 363.09454,363.09454 0 0 0 44.01171,171.3457 363.09454,363.09454 0 0 0 44.01172,-171.3457 363.09454,363.09454 0 0 0 -43.5039,-172.2715 z"
       copytype="single_stretched"
       prop_scale="0.1"
       scale_y_rel="false"
       spacing="0"
       normal_offset="0"
       tang_offset="0"
       prop_units="false"
       vertical_pattern="false"
       hide_knot="false"
       fuse_tolerance="0" /><inkscape:path-effect
       effect="skeletal"
       id="path-effect42"
       is_visible="true"
       lpeversion="1"
       pattern="m 704.69141,2837.0117 a 363.09454,363.09454 0 0 0 -44.51953,172.2715 363.09454,363.09454 0 0 0 44.01171,171.3457 363.09454,363.09454 0 0 0 44.01172,-171.3457 363.09454,363.09454 0 0 0 -43.5039,-172.2715 z"
       copytype="single_stretched"
       prop_scale="0.05"
       scale_y_rel="false"
       spacing="0"
       normal_offset="0"
       tang_offset="0"
       prop_units="false"
       vertical_pattern="false"
       hide_knot="false"
       fuse_tolerance="0" /><inkscape:path-effect
       effect="skeletal"
       id="path-effect41"
       is_visible="true"
       lpeversion="1"
       pattern="m 704.69141,2837.0117 a 363.09454,363.09454 0 0 0 -44.51953,172.2715 363.09454,363.09454 0 0 0 44.01171,171.3457 363.09454,363.09454 0 0 0 44.01172,-171.3457 363.09454,363.09454 0 0 0 -43.5039,-172.2715 z"
       copytype="single_stretched"
       prop_scale="0.08"
       scale_y_rel="false"
       spacing="0"
       normal_offset="0"
       tang_offset="0"
       prop_units="false"
       vertical_pattern="false"
       hide_knot="false"
       fuse_tolerance="0" /><inkscape:path-effect
       effect="skeletal"
       id="path-effect40"
       is_visible="true"
       lpeversion="1"
       pattern="m 704.69141,2837.0117 a 363.09454,363.09454 0 0 0 -44.51953,172.2715 363.09454,363.09454 0 0 0 44.01171,171.3457 363.09454,363.09454 0 0 0 44.01172,-171.3457 363.09454,363.09454 0 0 0 -43.5039,-172.2715 z"
       copytype="single_stretched"
       prop_scale="0.125"
       scale_y_rel="false"
       spacing="0"
       normal_offset="0"
       tang_offset="0"
       prop_units="false"
       vertical_pattern="false"
       hide_knot="false"
       fuse_tolerance="0" /><inkscape:path-effect
       effect="skeletal"
       id="path-effect39"
       is_visible="true"
       lpeversion="1"
       pattern="m 704.69141,2837.0117 a 363.09454,363.09454 0 0 0 -44.51953,172.2715 363.09454,363.09454 0 0 0 44.01171,171.3457 363.09454,363.09454 0 0 0 44.01172,-171.3457 363.09454,363.09454 0 0 0 -43.5039,-172.2715 z"
       copytype="single_stretched"
       prop_scale="0.125"
       scale_y_rel="false"
       spacing="0"
       normal_offset="0"
       tang_offset="0"
       prop_units="false"
       vertical_pattern="false"
       hide_knot="false"
       fuse_tolerance="0" /><inkscape:path-effect
       effect="skeletal"
       id="path-effect34"
       is_visible="true"
       lpeversion="1"
       pattern="m 704.69141,2837.0117 a 363.09454,363.09454 0 0 0 -44.51953,172.2715 363.09454,363.09454 0 0 0 44.01171,171.3457 363.09454,363.09454 0 0 0 44.01172,-171.3457 363.09454,363.09454 0 0 0 -43.5039,-172.2715 z"
       copytype="single_stretched"
       prop_scale="0.125"
       scale_y_rel="false"
       spacing="0"
       normal_offset="0"
       tang_offset="0"
       prop_units="false"
       vertical_pattern="false"
       hide_knot="false"
       fuse_tolerance="0" /><inkscape:path-effect
       effect="skeletal"
       id="path-effect32"
       is_visible="true"
       lpeversion="1"
       pattern="m 704.69141,2837.0117 a 363.09454,363.09454 0 0 0 -44.51953,172.2715 363.09454,363.09454 0 0 0 44.01171,171.3457 363.09454,363.09454 0 0 0 44.01172,-171.3457 363.09454,363.09454 0 0 0 -43.5039,-172.2715 z"
       copytype="single_stretched"
       prop_scale="0.125"
       scale_y_rel="false"
       spacing="0"
       normal_offset="0"
       tang_offset="0"
       prop_units="false"
       vertical_pattern="false"
       hide_knot="false"
       fuse_tolerance="0" /><inkscape:path-effect
       effect="skeletal"
       id="path-effect31"
       is_visible="true"
       lpeversion="1"
       pattern="m 704.69141,2837.0117 a 363.09454,363.09454 0 0 0 -44.51953,172.2715 363.09454,363.09454 0 0 0 44.01171,171.3457 363.09454,363.09454 0 0 0 44.01172,-171.3457 363.09454,363.09454 0 0 0 -43.5039,-172.2715 z"
       copytype="single_stretched"
       prop_scale="0.125"
       scale_y_rel="false"
       spacing="0"
       normal_offset="0"
       tang_offset="0"
       prop_units="false"
       vertical_pattern="false"
       hide_knot="false"
       fuse_tolerance="0" /><inkscape:path-effect
       effect="skeletal"
       id="path-effect30"
       is_visible="true"
       lpeversion="1"
       pattern="m 704.69141,2837.0117 a 363.09454,363.09454 0 0 0 -44.51953,172.2715 363.09454,363.09454 0 0 0 44.01171,171.3457 363.09454,363.09454 0 0 0 44.01172,-171.3457 363.09454,363.09454 0 0 0 -43.5039,-172.2715 z"
       copytype="single_stretched"
       prop_scale="0.125"
       scale_y_rel="false"
       spacing="0"
       normal_offset="0"
       tang_offset="0"
       prop_units="false"
       vertical_pattern="false"
       hide_knot="false"
       fuse_tolerance="0" /><inkscape:path-effect
       effect="skeletal"
       id="path-effect29"
       is_visible="true"
       lpeversion="1"
       pattern="m 704.69141,2837.0117 a 363.09454,363.09454 0 0 0 -44.51953,172.2715 363.09454,363.09454 0 0 0 44.01171,171.3457 363.09454,363.09454 0 0 0 44.01172,-171.3457 363.09454,363.09454 0 0 0 -43.5039,-172.2715 z"
       copytype="single_stretched"
       prop_scale="0.125"
       scale_y_rel="false"
       spacing="0"
       normal_offset="0"
       tang_offset="0"
       prop_units="false"
       vertical_pattern="false"
       hide_knot="false"
       fuse_tolerance="0" /><inkscape:path-effect
       effect="skeletal"
       id="path-effect28"
       is_visible="true"
       lpeversion="1"
       pattern="m 704.69141,2837.0117 a 363.09454,363.09454 0 0 0 -44.51953,172.2715 363.09454,363.09454 0 0 0 44.01171,171.3457 363.09454,363.09454 0 0 0 44.01172,-171.3457 363.09454,363.09454 0 0 0 -43.5039,-172.2715 z"
       copytype="single_stretched"
       prop_scale="0.125"
       scale_y_rel="false"
       spacing="0"
       normal_offset="0"
       tang_offset="0"
       prop_units="false"
       vertical_pattern="false"
       hide_knot="false"
       fuse_tolerance="0" /><inkscape:path-effect
       effect="skeletal"
       id="path-effect27"
       is_visible="true"
       lpeversion="1"
       pattern="m 704.69141,2837.0117 a 363.09454,363.09454 0 0 0 -44.51953,172.2715 363.09454,363.09454 0 0 0 44.01171,171.3457 363.09454,363.09454 0 0 0 44.01172,-171.3457 363.09454,363.09454 0 0 0 -43.5039,-172.2715 z"
       copytype="single_stretched"
       prop_scale="0.125"
       scale_y_rel="false"
       spacing="0"
       normal_offset="0"
       tang_offset="0"
       prop_units="false"
       vertical_pattern="false"
       hide_knot="false"
       fuse_tolerance="0" /><inkscape:path-effect
       effect="skeletal"
       id="path-effect26"
       is_visible="true"
       lpeversion="1"
       pattern="m 704.69141,2837.0117 a 363.09454,363.09454 0 0 0 -44.51953,172.2715 363.09454,363.09454 0 0 0 44.01171,171.3457 363.09454,363.09454 0 0 0 44.01172,-171.3457 363.09454,363.09454 0 0 0 -43.5039,-172.2715 z"
       copytype="single_stretched"
       prop_scale="0.125"
       scale_y_rel="false"
       spacing="0"
       normal_offset="0"
       tang_offset="0"
       prop_units="false"
       vertical_pattern="false"
       hide_knot="false"
       fuse_tolerance="0" /><inkscape:path-effect
       effect="skeletal"
       id="path-effect25"
       is_visible="true"
       lpeversion="1"
       pattern="m 704.69141,2837.0117 a 363.09454,363.09454 0 0 0 -44.51953,172.2715 363.09454,363.09454 0 0 0 44.01171,171.3457 363.09454,363.09454 0 0 0 44.01172,-171.3457 363.09454,363.09454 0 0 0 -43.5039,-172.2715 z"
       copytype="single_stretched"
       prop_scale="0.125"
       scale_y_rel="false"
       spacing="0"
       normal_offset="0"
       tang_offset="0"
       prop_units="false"
       vertical_pattern="false"
       hide_knot="false"
       fuse_tolerance="0" /><inkscape:path-effect
       effect="skeletal"
       id="path-effect24"
       is_visible="true"
       lpeversion="1"
       pattern="m 704.69141,2837.0117 a 363.09454,363.09454 0 0 0 -44.51953,172.2715 363.09454,363.09454 0 0 0 44.01171,171.3457 363.09454,363.09454 0 0 0 44.01172,-171.3457 363.09454,363.09454 0 0 0 -43.5039,-172.2715 z"
       copytype="single_stretched"
       prop_scale="0.125"
       scale_y_rel="false"
       spacing="0"
       normal_offset="0"
       tang_offset="0"
       prop_units="false"
       vertical_pattern="false"
       hide_knot="false"
       fuse_tolerance="0" /><inkscape:path-effect
       effect="skeletal"
       id="path-effect23"
       is_visible="true"
       lpeversion="1"
       pattern="m 704.69141,2837.0117 a 363.09454,363.09454 0 0 0 -44.51953,172.2715 363.09454,363.09454 0 0 0 44.01171,171.3457 363.09454,363.09454 0 0 0 44.01172,-171.3457 363.09454,363.09454 0 0 0 -43.5039,-172.2715 z"
       copytype="single_stretched"
       prop_scale="0.125"
       scale_y_rel="false"
       spacing="0"
       normal_offset="0"
       tang_offset="0"
       prop_units="false"
       vertical_pattern="false"
       hide_knot="false"
       fuse_tolerance="0" /><inkscape:path-effect
       effect="skeletal"
       id="path-effect22"
       is_visible="true"
       lpeversion="1"
       pattern="m 704.69141,2837.0117 a 363.09454,363.09454 0 0 0 -44.51953,172.2715 363.09454,363.09454 0 0 0 44.01171,171.3457 363.09454,363.09454 0 0 0 44.01172,-171.3457 363.09454,363.09454 0 0 0 -43.5039,-172.2715 z"
       copytype="single_stretched"
       prop_scale="0.06"
       scale_y_rel="false"
       spacing="0"
       normal_offset="0"
       tang_offset="0"
       prop_units="false"
       vertical_pattern="false"
       hide_knot="false"
       fuse_tolerance="0" /></defs><g
     inkscape:label="Layer 1"
     inkscape:groupmode="layer"
     id="layer1"><rect
       style="fill:#ffffff;stroke:none;stroke-width:24.4612;stroke-linecap:round;stroke-linejoin:round"
       id="rect22"
       width="3815.5388"
       height="2135.5388"
       x="12.230591"
       y="12.230591" /><path
       style="opacity:0;fill:#c6d4d8;fill-opacity:1;stroke:none;stroke-width:22.6772;stroke-linecap:round;stroke-linejoin:round"
       d="m 318.22659,289.70994 c -0.007,-0.0156 -7.51626,-17.5207 -7.52293,-17.53626 C 273.0689,237.18464 238.5553,205.19834 207.21914,176.26241 161.38353,106.10391 124.71588,50.483573 97.780872,10.268875 78.692137,-46.645497 67.948202,-76.096698 65.99065,-77.011877 c -1.104237,1.854299 6.602127,32.266002 23.226863,91.227377 24.998947,41.75296 60.134977,99.45985 105.125097,172.65192 30.24135,29.31244 63.61865,61.54659 100.06639,96.63485 -0.003,-0.007 4.87376,11.58726 4.87074,11.58009 4.19492,9.39346 37.39031,83.75247 41.58523,93.14594 0,0 -1e-5,4e-5 -1e-5,4e-5 -9.70826,34.53482 -18.75187,66.29948 -27.13461,95.40799 144.61851,72.21858 219.32632,106.35852 222.64711,105.04191 1.11911,-2.44784 -71.37649,-41.05997 -211.90255,-109.58035 10.15996,-28.18829 21.27398,-58.71028 33.39465,-91.6265 1e-5,-10e-6 1e-5,-2e-5 1e-5,-3e-5 -2.30647,-5.68997 -37.3365,-92.07145 -39.64298,-97.76142 z"
       id="path22"
       inkscape:path-effect="#path-effect22"
       inkscape:original-d="M 66.017192,-77.020057 93.524355,12.230591 200.80229,181.54728 302.5788,277.82235 349.34097,387.851 319.08309,481.37536 536.38969,588.6533" /><path
       style="opacity:1;fill:#d2b08c;fill-opacity:1;stroke:none;stroke-width:22.6772;stroke-linecap:round;stroke-linejoin:round"
       d="m 328.65289,259.30534 c -39.24997,-49.08738 -74.69871,-92.99717 -106.36293,-131.79228 0,0 -3e-5,-2e-5 -3e-5,-2e-5 C 172.65775,91.136013 128.97352,59.077295 94.773168,34.126179 89.274428,-45.27267 83.449717,-88.291221 79.427599,-89.826896 75.560087,-87.937361 73.677937,-44.414231 75.806836,43.723782 107.80762,72.25936 148.91548,108.63233 197.68665,151.74834 c 1e-5,10e-6 2e-5,2e-5 2e-5,3e-5 27.3724,36.56053 57.85969,76.83468 91.38528,120.68612 -0.94647,-1.13289 35.28856,42.22668 34.34209,41.09379 1.08927,41.8633 3.04547,118.65068 4.13474,160.51398 134.60068,81.34326 204.02224,118.06852 208.81114,114.72192 2.78539,-4.67247 -61.10685,-50.17033 -184.88368,-127.89697 -3.54556,70.39284 11.63378,-229.95139 8.08822,-159.55855 -0.23514,-0.31973 -30.67643,-41.68359 -30.91157,-42.00332 z"
       id="path23"
       inkscape:path-effect="#path-effect23"
       inkscape:original-d="M 79.485402,-89.829524 85.337383,38.901004 210.02954,139.59011 341.43688,307.43617 339.46802,467.47923 536.39022,588.71489"
       sodipodi:nodetypes="cccccc" /><path
       style="opacity:1;fill:#d2b08c;fill-opacity:1;stroke:none;stroke-width:22.6772;stroke-linecap:round;stroke-linejoin:round"
       d="m 225.21111,1890.3557 c -8.15123,9.6743 -16.13551,19.2702 -23.93119,28.7544 -32.81599,1.6157 -62.08884,3.3383 -87.74781,5.1301 -22.639888,19.0049 -41.68762,35.2364 -56.939457,48.5692 0,0 -1.2e-5,0 -1.2e-5,0 -35.288808,-1.2126 -55.3822037,0.3099 -56.59800039,3.6379 0.57859628,3.4965 20.17187939,8.703 61.72286739,14.6302 0,0 1.4e-5,0 1.4e-5,0 16.451657,-10.2584 36.928609,-23.4395 61.348498,-39.4534 27.34637,0.183 58.61362,0.068 93.80935,-0.3808 11.76427,-13.8762 24.24902,-28.7126 37.47529,-44.5405 -1.02185,1.3431 15.94019,-20.9526 14.91834,-19.6095 -15.1487,-38.0543 -28.90198,-71.5538 -41.22034,-100.571 29.31782,-84.8704 42.02857,-132.7811 37.44952,-136.0718 -5.18646,-1.9395 -27.95162,42.3035 -67.29465,136.2083 10.05744,27.7098 21.98024,59.3041 35.80907,94.7132 -2.91688,2.9849 -5.85078,5.9796 -8.80149,8.9837 z"
       id="path24"
       transform="translate(-60.515759,-570.38941)"
       inkscape:original-d="m 0,1976.3897 59.140401,5.5014 59.140399,-44.0114 90.77364,-2.7508 42.6361,-50.8882 -38.51002,-97.6504 52.26361,-136.1605"
       inkscape:path-effect="#path-effect24" /><path
       style="opacity:1;fill:#d2b08c;fill-opacity:1;stroke:none;stroke-width:22.6772;stroke-linecap:round;stroke-linejoin:round"
       d="m 218.39276,1482.303 c 2.6925,-13.5203 5.15594,-26.105 7.3796,-37.7194 -43.11307,-65.7198 -67.92774,-94.8736 -73.98515,-92.3107 -5.095,4.145 8.8999,39.4916 39.92976,96.9114 -3.91645,10.4452 -8.05948,21.5896 -12.40788,33.3619 -20.17866,86.7606 -26.78832,136.9971 -19.82327,140.0607 7.30632,2.0109 27.72861,-44.0342 58.90694,-140.3039 z"
       id="path25"
       inkscape:path-effect="#path-effect25"
       inkscape:original-d="m 151.83678,1352.2431 56.96087,94.6337 -49.2561,175.7457"
       sodipodi:nodetypes="ccc" /><path
       style="opacity:1;fill:#d2b08c;fill-opacity:1;stroke:none;stroke-width:22.6772;stroke-linecap:round;stroke-linejoin:round"
       d="m 3672.1306,1687.9905 c 29.6775,-6.9194 57.3151,-13.3053 83.1407,-19.2331 0,0 0,10e-5 0,10e-5 12.0208,8.6569 23.3423,16.9824 33.9916,24.9737 92.0525,-92.603 132.1123,-142.5504 129.0905,-147.8684 -5.4679,-2.7485 -53.034,39.6337 -129.3938,124.4507 -7.6911,-10.3649 -15.6088,-21.2952 -23.7411,-32.8085 0,0 0,0 0,0 4.9833,-0.57 -89.4516,10.1531 -84.4684,9.5832 -10.9326,1.8671 -21.5833,3.7111 -31.9536,5.5314 -45.4468,-13.0396 -85.5616,-24.1944 -120.0995,-33.4254 -99.4471,-13.3628 -151.0878,-17.6327 -153.5577,-12.8328 -0.895,5.1673 48.8816,19.5909 146.2217,42.4084 35.1959,12.7063 76.7795,27.2522 124.7346,43.5953 8.5019,-1.4088 17.1804,-2.8669 26.035,-4.3746 z"
       id="path26"
       inkscape:path-effect="#path-effect26"
       inkscape:original-d="m 3918.3954,1545.9026 -129.2836,136.1604 -28.8826,-28.8825 -112.7793,19.255 -122.4069,-38.51 -149.9141,-27.5072"
       transform="translate(0,-639.46014)" /><path
       style="opacity:1;fill:#d2b08c;fill-opacity:1;stroke:none;stroke-width:22.6772;stroke-linecap:round;stroke-linejoin:round"
       d="m 3702.3335,1857.2419 c -7.4399,-11.6316 -14.5545,-22.8582 -21.3569,-33.6872 17.9098,-15.2393 34.1552,-29.9192 48.6926,-43.8215 23.7516,-17.9099 43.9394,-32.5622 60.3493,-44.391 20.9902,15.0216 35.2889,21.6883 37.7853,19.5682 1.2963,-3.0219 -9.4301,-14.7874 -36.8423,-35.4503 -18.6611,8.1892 -61.3514,27.1956 -80.0125,35.3848 -18.0241,17.8612 -38.4411,38.9454 -61.3592,63.5336 4.638,11.4704 9.4541,23.4787 14.4519,36.047 6.9546,14.723 13.6771,28.6864 20.1649,41.9051 -5.583,32.0525 -10.2086,60.778 -13.841,85.7276 -31.9303,55.6338 -46.9763,86.9898 -43.5944,90.5748 4.0906,2.6598 27.1653,-23.4827 69.3873,-79.8621 7.1825,-27.5893 15.4052,-61.2861 24.6729,-101.3799 -5.8181,-10.9568 -11.982,-22.3411 -18.4979,-34.1491 z"
       id="path27"
       inkscape:path-effect="#path-effect27"
       inkscape:original-d="m 3827.7694,1754.957 -37.2823,-27.5071 -70.1433,39.8853 -55.0143,53.639 37.1347,72.894 -19.255,93.5244 -56.3897,85.2722"
       transform="translate(0,-639.46014)" /><path
       style="opacity:1;fill:#d2b08c;fill-opacity:1;stroke:none;stroke-width:22.6772;stroke-linecap:round;stroke-linejoin:round"
       d="m 1001.1991,2252.9101 c 0.2958,-1.3128 -15.66857,69.6372 -15.37275,68.3243 13.10301,23.0794 25.57225,44.849 37.40795,65.3235 6.2848,176.6531 13.2049,270.9952 19.3451,273.3842 6.0948,-2.5037 11.1359,-97.129 13.8368,-282.2886 -10.6887,-19.3706 -22.0586,-39.7718 -34.1125,-61.1941 -3.1453,10.4874 19.6054,-65.3597 16.4601,-54.8723 8.1952,-32.9014 15.8311,-64.0593 22.9016,-93.4158 0,-10e-5 0,-10e-5 0,-10e-5 23.2858,-31.3289 44.3516,-59.8306 63.1243,-85.4156 6.262,-48.6734 11.0942,-88.9219 14.4785,-120.5321 0,0 0,0 0,0 28.6865,-42.6538 42.6666,-66.6923 40.8354,-69.696 -2.7029,-1.9722 -21.9711,18.1751 -58.3863,62.225 0,0 0,10e-5 0,10e-5 -6.6675,30.1355 -14.6961,68.8884 -24.0316,116.0278 -20.7652,24.248 -43.7651,51.2859 -68.9092,80.9972 0,0 0,0 0,0 -8.6341,31.207 -17.8259,64.9052 -27.5774,101.1325 z"
       id="path28"
       inkscape:path-effect="#path-effect28"
       inkscape:original-d="m 1042.5215,2659.9427 -2.7507,-277.8224 -35.7593,-63.2664 41.2607,-158.8539 66.0172,-83.2092 19.255,-118.2808 49.5129,-66.0172"
       transform="translate(0,-311.9266)" /><path
       style="opacity:1;fill:#d2b08c;fill-opacity:1;stroke:none;stroke-width:22.6772;stroke-linecap:round;stroke-linejoin:round"
       d="m 898.43093,2097.1268 c -0.0286,-0.027 5.75205,5.447 5.72344,5.4199 22.98817,-4.0152 43.73038,-7.815 62.18679,-11.3817 45.29234,40.1357 74.26574,60.0992 78.97104,56.5626 3.3252,-4.8632 -18.1203,-33.0598 -69.61525,-85.4108 -17.41783,1.3262 -37.05096,3.0332 -58.842,5.1255 0.23313,0.297 -3.67794,-4.6864 -3.4448,-4.3893 -70.36525,-73.5086 -114.73492,-111.525 -121.16118,-107.3328 -5.58858,5.1689 28.09253,52.5652 106.18196,141.4066 z"
       id="path29"
       inkscape:path-effect="#path-effect29"
       inkscape:original-d="m 1045.2722,2147.7694 -74.26933,-70.9786 -60.51576,8.2522 -118.28081,-129.2837"
       transform="translate(0,-311.9266)" /><path
       style="opacity:1;fill:#d2b08c;fill-opacity:1;stroke:none;stroke-width:22.6772;stroke-linecap:round;stroke-linejoin:round"
       d="m 3013.3276,2100.7229 c -35.6199,12.7402 -66.358,24.2851 -92.1197,34.5123 -46.1095,57.8104 -66.4449,88.5262 -63.1704,92.8835 4.7,2.7499 32.7767,-20.8876 79.8426,-67.7212 27.8522,-7.9974 60.6892,-18.0426 98.504,-30.2181 49.2386,-20.305 89.7526,-37.0873 119.216,-49.6059 1.8983,-56.2672 -1.486,-82.4822 -5.9721,-83.5514 -4.5575,-0.1325 -9.9794,25.6804 -11.666,70.4274 -31.9422,8.3679 -74.8952,19.9124 -124.6344,33.2734 z"
       id="path30"
       inkscape:path-effect="#path-effect30"
       inkscape:original-d="m 2857.9943,2228.0802 71.5186,-80.3108 217.3066,-73.7293 2.7507,-77.02"
       transform="translate(0,-68.334084)" /><path
       style="opacity:1;fill:#d2b08c;fill-opacity:1;stroke:none;stroke-width:22.6772;stroke-linecap:round;stroke-linejoin:round"
       d="m 2792.4284,2152.6611 c -0.1267,-0.1832 7.2237,10.441 7.097,10.2578 80.2731,-1.264 118.1356,-7.9728 118.9846,-15.2074 -0.8457,-7.2287 -38.3109,-13.9393 -101.0216,-15.1779 0.074,0.1784 -4.0264,-9.7019 -3.9522,-9.5234 -35.1706,-60.4221 -61.1985,-93.137 -68.2706,-90.2587 -6.6668,3.7016 6.92,43.1404 47.1628,119.9096 z"
       id="path31"
       inkscape:path-effect="#path-effect31"
       inkscape:original-d="m 2918.51,2147.7694 h -110.0286 l -63.2665,-114.99"
       transform="translate(0,-68.334084)" /><path
       style="opacity:1;fill:#d2b08c;fill-opacity:1;stroke:none;stroke-width:22.6772;stroke-linecap:round;stroke-linejoin:round"
       d="m 3612.6779,2048.212 c 0.01,-0.015 -5.2534,9.526 -5.2451,9.5109 11.542,31.5613 21.5838,58.8727 30.1193,81.851 81.2126,12.6205 120.6755,13.6243 122.6865,8.1384 -0.1384,-5.8388 -37.5589,-17.5152 -104.086,-29.2515 -3.5447,-17.5596 -7.1952,-36.0981 -10.8713,-55.5964 0.01,-0.012 5.0362,-7.1249 5.0445,-7.1366 18.6487,-31.9883 34.3286,-59.7239 46.9815,-83.0167 -10.9503,-67.0169 -19.7407,-99.0893 -25.0435,-99.4799 -5.2599,0.6344 -6.7087,33.7733 -3.2601,93.0591 -16.0937,22.6277 -34.8982,49.9512 -56.3258,81.9217 z"
       id="path32"
       inkscape:path-effect="#path-effect32"
       inkscape:original-d="m 3760.2292,2147.7694 -113.4095,-18.715 -20.5152,-68.7679 56.9047,-90.7736 -11.0029,-96.2751" /><path
       style="opacity:1;fill:#a38672;fill-opacity:1;stroke:none;stroke-width:22.6772;stroke-linecap:round;stroke-linejoin:round"
       d="m 321.90577,274.01375 c -32.2367,-43.42789 -61.82998,-82.9755 -88.78746,-118.6786 -1e-5,-1e-5 -2e-5,-2e-5 -3e-5,-3e-5 C 178.21752,107.07958 131.60253,66.189109 95.079351,34.467589 89.238524,-45.259361 83.425618,-88.281828 79.427599,-89.826896 75.584818,-87.930174 73.713218,-44.416734 75.497032,43.379191 108.97773,78.482033 152.8597,123.95727 206.10841,178.93569 c 0,0 3e-5,3e-5 3e-5,3e-5 23.07146,33.21388 48.2869,69.1865 75.60092,107.83218 -0.54588,-0.70498 30.92433,39.92366 30.37846,39.21868 4.07765,62.57365 7.52856,117.09583 10.53769,165.20841 144.42526,70.45614 218.42976,101.35615 222.93932,97.57178 2.35595,-4.93864 -66.93949,-45.10179 -200.17289,-112.04828 0.94326,-48.05099 2.07155,-102.06158 3.4943,-163.11196 -0.15588,-0.22889 -26.82459,-39.36388 -26.98047,-39.59278 z"
       id="path33"
       inkscape:path-effect="#path-effect34"
       inkscape:original-d="M 79.485402,-89.829524 85.337383,38.901004 219.65705,167.09727 330.43401,319.81439 333.96659,483.98353 545.59045,588.71489"
       sodipodi:nodetypes="cccccc"
       transform="matrix(1.004213,0,0,1,-11.985272,0)" /><path
       style="opacity:1;fill:#a38672;fill-opacity:1;stroke:none;stroke-width:22.6772;stroke-linecap:round;stroke-linejoin:round"
       d="m 978.11814,1934.7565 c -7.52702,22.4068 -14.70378,43.9457 -21.53313,64.6159 18.06427,31.1883 34.96813,60.0192 50.71259,86.5324 13.154,166.9869 23.5053,255.7688 29.4719,257.8777 5.7195,-2.7084 6.8186,-92.2296 2.2342,-267.3122 -14.2592,-25.0849 -29.7706,-51.9993 -46.5429,-80.7204 6.86626,-19.9624 13.9644,-40.7524 21.2932,-62.3738 1.5243,-5.113 28.7259,-96.1652 30.2503,-101.2782 -28.5046,-25.101 -54.43742,-47.7535 -77.90863,-68.0748 -21.4142,6.6651 -41.32428,12.8327 -59.83031,18.5485 -62.39112,-82.2938 -99.9739,-124.7542 -104.85852,-123.4787 -3.75353,2.9094 26.72048,50.9784 97.3024,145.0996 -4.69373,0.974 65.46446,-13.5375 60.77072,-12.5635 17.17592,15.5398 35.30471,31.7608 54.28454,48.5531 1.5944,-4.2378 -37.24073,98.8122 -35.64636,94.5744 z"
       id="path38"
       inkscape:path-effect="#path-effect39"
       inkscape:original-d="m 1036.7117,2343.7855 -13.6153,-262.5818 -48.62626,-83.6372 54.46136,-161.4391 -66.13166,-58.3515 -60.29656,15.5604 -101.14261,-134.2085" /><path
       style="opacity:1;fill:#a38672;fill-opacity:1;stroke:none;stroke-width:22.6772;stroke-linecap:round;stroke-linejoin:round"
       d="m 190.71133,1412.1321 c -0.66673,-1.2925 -18.39056,-35.6983 -19.05729,-36.9908 -46.81623,-4.8488 -84.012404,-8.0182 -112.401116,-9.7484 -41.248088,32.445 -59.10957165,50.4242 -57.2743861,54.5409 3.2754193,3.0905 26.0206821,-7.7455 63.2786501,-31.0304 24.279687,4.4619 53.238382,9.0713 85.906672,13.5674 2.47382,8.1482 4.95658,16.4618 7.44173,24.9382 3.83045,9.3776 7.67078,18.5313 11.50612,27.4415 -16.10029,103.1297 -20.93428,160.7667 -14.56445,163.4199 6.72921,1.2998 24.56197,-53.9726 51.79214,-167.2272 -5.13645,-12.2219 -10.6744,-25.1854 -16.62807,-38.9111 z"
       id="path39"
       inkscape:path-effect="#path-effect40"
       inkscape:original-d="m 1.9450502,1419.8866 60.2965558,-42.7911 99.197554,11.6703 27.23071,64.1867 -33.06586,165.3292" /><path
       style="opacity:1;fill:#a38672;fill-opacity:1;stroke:none;stroke-width:22.6772;stroke-linecap:round;stroke-linejoin:round"
       d="m 152.04269,1285.9744 c 3.7799,8.5884 7.34203,16.6707 10.55809,23.9209 -18.31593,21.7115 -27.05093,37.0777 -24.47466,39.9942 3.21889,2.278 17.60682,-8.2145 43.61022,-35.8987 -1.55449,-7.5903 -3.35388,-16.1422 -5.37533,-25.5904 -18.16056,-50.92 -30.52421,-74.6691 -35.30961,-73.7279 -4.62276,1.4988 -1.10209,27.5967 10.99129,71.3019 z"
       id="path40"
       inkscape:path-effect="#path-effect41"
       inkscape:original-d="m 138.09856,1349.8648 34.03838,-37.9285 -31.1208,-97.2525"
       sodipodi:nodetypes="ccc" /><path
       style="opacity:1;fill:#a38672;fill-opacity:1;stroke:none;stroke-width:22.6772;stroke-linecap:round;stroke-linejoin:round"
       d="m 2822.1034,2094.7534 c 31.648,-4.054 58.7907,-7.2709 81.7492,-9.8014 -32.3373,40.2164 -47.0747,64.2185 -45.8395,66.1217 2.2564,0.5675 20.0986,-21.1412 50.4151,-68.7002 -21.7749,0.8781 -47.5234,1.7031 -77.5271,2.3769 -10.5364,0.5316 -20.5941,1.0854 -30.1782,1.6576 -34.2799,-74.6039 -55.3081,-114.3218 -58.2377,-114.1541 -2.4971,1.1874 13.9886,43.1941 51.7294,125.2108 8.8637,-0.8215 18.1585,-1.724 27.8888,-2.7113 z"
       id="path41"
       inkscape:path-effect="#path-effect42"
       inkscape:original-d="m 2857.9943,2151.0602 48.1375,-67.3926 -108.6533,8.2522 -55.0143,-119.6562" /><path
       style="opacity:1;fill:#a38672;fill-opacity:1;stroke:none;stroke-width:22.6772;stroke-linecap:round;stroke-linejoin:round"
       d="m 3672.6407,1010.5048 c -10.4089,2.2378 -20.5615,4.437 -30.4586,6.5974 -50.0816,-16.6455 -93.5392,-30.70663 -130.0716,-42.12852 -89.855,-16.79013 -136.5819,-23.45793 -138.9175,-19.90892 0.5507,4.2108 45.4892,18.57134 132.4116,42.33179 37.027,14.53845 81.8564,31.63485 134.4751,51.23405 8.344,-1.6649 16.8629,-3.3778 25.5562,-5.139 6.8774,-1.7429 72.4367,-18.3241 79.3141,-20.0669 0,0 0,0 0,0 14.4813,9.4214 28.0301,18.3756 40.6836,26.8632 85.5104,-85.84498 124.1017,-131.69131 122.0055,-136.08213 -3.3637,-3.1813 -47.9967,36.66156 -123.1415,116.64113 -10.5674,-10.4659 -21.6376,-21.6067 -33.2042,-33.4465 0,-10e-6 0,-2e-5 0,-2e-5 -30.6452,5.10432 -48.0075,8.00012 -78.6527,13.10442 z"
       id="path43"
       inkscape:path-effect="#path-effect43"
       inkscape:original-d="m 3373.2033,955.01964 135.6672,31.1208 132.2634,46.68116 106.9778,-22.368 36.9559,30.1482 122.5382,-126.42822"
       transform="translate(1.9450502,12.642826)"
       sodipodi:nodetypes="cccccc" /><path
       style="opacity:1;fill:#a38672;fill-opacity:1;stroke:none;stroke-width:22.6772;stroke-linecap:round;stroke-linejoin:round"
       d="m 3716.9075,1229.308 c -10.5682,-15.7902 -20.4963,-30.7405 -29.8153,-44.8771 0,-10e-5 0,-10e-5 0,-10e-5 18.4181,-14.1037 35.0039,-27.303 49.7632,-39.4917 20.6576,-17.9736 37.7536,-32.6165 51.5657,-44.4331 0,0 0,0 0,0 24.2632,11.3064 38.5049,16.2407 39.938,14.9511 0.1178,-1.9235 -12.6987,-10.0225 -40.8152,-23.947 0,0 0,0 0,0 -49.122,32.1984 -12.1605,7.9827 -61.2824,40.181 -16.3417,14.3153 -34.7476,30.9355 -55.2781,50.0233 0,0 0,0 0,0 7.5126,14.4422 15.4608,29.8286 23.8581,46.206 5.039,9.005 9.9484,17.7154 14.7283,26.1345 -9.253,37.5956 -17.041,70.4236 -23.3202,98.1198 -38.7636,50.4959 -58.1906,78.2581 -56.811,80.8204 2.1372,1.7131 25.7429,-22.6801 70.6966,-73.7409 8.4783,-29.1936 18.5352,-65.158 30.1721,-108.0929 -4.322,-7.0977 -8.7882,-14.3822 -13.3998,-21.8533 z"
       id="path44"
       inkscape:path-effect="#path-effect44"
       inkscape:original-d="m 3828.345,1115.4863 -40.3598,-19.4505 -56.4064,42.3048 -52.5164,44.7362 40.8461,69.5355 -26.7445,103.0877 -63.7004,77.3157" /><path
       style="opacity:1;fill:#a38672;fill-opacity:1;stroke:none;stroke-width:22.6772;stroke-linecap:round;stroke-linejoin:round"
       d="m 3636.7833,2119.824 c -15.2533,-39.6479 -26.0881,-61.3043 -29.1298,-60.7546 -2.6785,1.5084 2.7767,24.9604 18.2525,70.5673 -0.107,-0.2419 5.0765,11.4576 4.9695,11.2157 40.0453,6.9973 59.8599,8.144 60.8254,5.5332 0.5021,-2.7299 -18.2533,-8.9526 -51.9524,-15.9388 -0.4343,-1.5565 -2.5308,-9.0662 -2.9652,-10.6228 z"
       id="path46"
       inkscape:path-effect="#path-effect47"
       inkscape:original-d="m 3607.6753,2059.0615 27.6235,76.6036 56.4064,10.6978"
       sodipodi:nodetypes="ccc" /></g></svg>
